Patient4_TMGait_0pt6_02_right_22_GRF.mot
version=1
nRows=45
nColumns=19
inDegrees=no
endheader
time	F1x	F1y	F1z	M1x	M1y	M1z	F2x	F2y	F2z	M2x	M2y	M2z	EC1x	EC1y	EC1z	EC2x	EC2y	EC2z
26.39	31.9366	778.6553	66.3039	-270.5923	-54.5414	784.591	-1.4836	-1.8782	0.6316	0.2883	-3.1884	-6.5154	-0.0592	0.0182	-0.0073	-0.0462	0.0165	0.9585
26.402	26.9708	771.4526	65.4398	-267.6745	-54.6642	773.6207	-1.1227	-0.13435	0.35032	0.6991	-1.9921	-3.0684	-0.0592	0.0182	-0.0073	-0.0462	0.0165	0.9585
26.414	23.3253	763.7588	64.2245	-264.6388	-53.9727	761.7544	-0.819	1.3511	0.14535	1.0418	-1.0174	-0.13442	-0.0592	0.0182	-0.0073	-0.0462	0.0165	0.9585
26.426	21.2236	756.4323	62.8102	-261.8047	-52.5564	750.0004	-0.59908	2.5101	0.006233	1.3105	-0.2915	2.1498	-0.0592	0.0182	-0.0073	-0.0462	0.0165	0.9585
26.438	20.578	750.2155	61.3279	-259.4288	-50.5889	739.1911	-0.44795	3.3558	-0.088074	1.514	0.20811	3.7987	-0.0592	0.0182	-0.0073	-0.0462	0.0165	0.9585
26.45	21.1228	745.549	59.912	-257.6478	-48.2952	729.8533	-0.36618	3.9289	-0.14693	1.6605	0.51956	4.8921	-0.0592	0.0182	-0.0073	-0.0462	0.0165	0.9585
26.462	22.5651	742.5112	58.622	-256.466	-45.8395	722.124	-0.336	4.2671	-0.18348	1.7517	0.69229	5.5193	-0.0592	0.0182	-0.0073	-0.0462	0.0165	0.9585
26.474	24.5975	740.8278	57.5268	-255.7607	-43.3929	715.7851	-0.35245	4.3877	-0.19836	1.7803	0.76724	5.7601	-0.0592	0.0182	-0.0073	-0.0462	0.0165	0.9585
26.486	26.9877	740.0073	56.6284	-255.3322	-41.0431	710.4061	-0.39885	4.2638	-0.20212	1.7259	0.78427	5.625	-0.0592	0.0182	-0.0073	-0.0462	0.0165	0.9585
26.498	29.5453	739.503	55.9599	-254.9591	-38.8901	705.504	-0.4693	3.8442	-0.19829	1.5573	0.77189	5.0818	-0.0592	0.0182	-0.0073	-0.0462	0.0165	0.9585
26.51	32.13	738.8413	55.5188	-254.451	-36.9868	700.657	-0.54095	3.0438	-0.18908	1.2306	0.74451	4.0513	-0.0592	0.0182	-0.0073	-0.0462	0.0165	0.9585
26.522	34.6748	737.7343	55.34	-253.6826	-35.3945	695.6213	-0.58987	1.7629	-0.17839	0.69822	0.70552	2.4414	-0.0592	0.0182	-0.0073	-0.0462	0.0165	0.9585
26.534	37.1606	736.0949	55.4208	-252.6038	-34.1222	690.3315	-0.59316	-0.08291	-0.15962	-0.07919	0.63675	0.16922	-0.0592	0.0182	-0.0073	-0.0462	0.0165	0.9585
26.546	39.5781	733.967	55.7708	-251.2168	-33.1811	684.831	-0.51215	-2.5148	-0.12842	-1.1132	0.5163	-2.7729	-0.0592	0.0182	-0.0073	-0.0462	0.0165	0.9585
26.558	41.9444	731.4511	56.3804	-249.5527	-32.5564	679.2164	-0.3051	-5.4291	-0.072372	-2.3596	0.31363	-6.2578	-0.0592	0.0182	-0.0073	-0.0462	0.0165	0.9585
26.57	44.2634	728.6052	57.2448	-247.6396	-32.2372	673.5426	0.079475	-8.5023	0.010761	-3.6784	0.0051664	-9.9119	-0.0592	0.0182	-0.0073	-0.0462	0.0165	0.9585
26.582	46.5283	725.4462	58.3377	-245.4965	-32.1947	667.831	0.68351	-11.0865	0.12472	-4.7881	-0.42915	-12.9774	-0.0592	0.0182	-0.0073	-0.0462	0.0165	0.9585
26.594	48.7344	721.9524	59.6022	-243.1346	-32.375	662.0681	1.5262	-12.1087	0.25684	-5.2215	-0.97709	-14.1953	-0.0592	0.0182	-0.0073	-0.0462	0.0165	0.9585
26.606	50.8496	718.0384	60.9638	-240.5465	-32.7211	656.2034	2.5867	-9.957	0.38106	-4.2816	-1.5907	-11.6712	-0.0592	0.0182	-0.0073	-0.0462	0.0165	0.9585
26.618	52.8462	713.5376	62.3185	-237.7031	-33.1486	650.1039	3.7724	-2.4904	0.45163	-1.0371	-2.1717	-2.8878	-0.0592	0.0182	-0.0073	-0.0462	0.0165	0.9585
26.63	54.6967	708.1887	63.5412	-234.5475	-33.5584	643.5545	4.8858	12.8999	0.3963	5.6432	-2.5393	15.2272	-0.0592	0.0182	-0.0073	-0.0462	0.0165	0.9585
26.642	56.4107	701.5538	64.4562	-230.9742	-33.7938	636.1482	5.5802	38.9899	0.12306	16.959	-2.4172	45.9395	-0.0592	0.0182	-0.0073	-0.0462	0.0165	0.9585
26.654	58.0008	692.9653	64.841	-226.8114	-33.6567	627.2614	5.3051	78.1429	-0.48608	33.9258	-1.4142	92.0293	-0.0592	0.0182	-0.0073	-0.0462	0.0165	0.9585
26.666	59.4943	681.3703	64.4219	-221.7744	-32.8981	615.9024	3.2586	131.3878	-1.549	56.9768	0.96762	154.6912	-0.0592	0.0182	-0.0073	-0.0462	0.0165	0.9585
26.678	60.8604	665.3423	62.9125	-215.4634	-31.2733	600.738	-1.5982	197.1327	-3.1119	85.4062	5.2286	232.031	-0.0592	0.0182	-0.0073	-0.0462	0.0165	0.9585
26.69	61.9687	643.1548	60.0588	-207.3802	-28.6013	580.1671	-9.7397	269.7712	-5.2574	116.7743	11.641	317.3996	-0.0592	0.0182	-0.0073	-0.0462	0.0165	0.9585
26.702	62.5487	613.1154	55.7282	-197.0209	-24.8558	552.6552	-19.8912	340.0454	-8.4461	147.0634	20.0968	399.7999	-0.0592	0.0182	-0.0073	-0.0462	0.0165	0.9585
26.714	62.2326	574.1647	50.0299	-184.0524	-20.255	517.2484	-29.8489	399.3597	-13.198	172.5642	30.0861	468.89	-0.0592	0.0182	-0.0073	-0.0462	0.0165	0.9585
26.726	60.6253	526.4745	43.3483	-168.4908	-15.2558	474.1215	-38.2017	445.0714	-18.9147	192.1336	40.3198	521.3414	-0.0592	0.0182	-0.0073	-0.0462	0.0165	0.9585
26.738	57.5189	471.4354	36.3146	-150.7116	-10.4575	424.5256	-44.2102	479.6503	-24.7304	206.8633	49.5198	559.9762	-0.0592	0.0182	-0.0073	-0.0462	0.0165	0.9585
26.75	52.8321	411.3775	29.5239	-131.39	-6.3791	370.5383	-47.6728	507.5347	-29.7726	218.714	56.6574	590.0246	-0.0592	0.0182	-0.0073	-0.0462	0.0165	0.9585
26.762	46.572	349.1991	23.357	-111.4045	-3.3368	314.7449	-48.8766	533.0315	-33.5937	229.5642	61.3784	616.6183	-0.0592	0.0182	-0.0073	-0.0462	0.0165	0.9585
26.774	38.8914	288.0456	18.0097	-91.737	-1.4587	259.9583	-48.2846	559.093	-36.0813	240.6911	63.7947	643.2751	-0.0592	0.0182	-0.0073	-0.0462	0.0165	0.9585
26.786	30.2149	230.8627	13.53	-73.3342	-0.65755	208.7825	-46.5021	587.1856	-37.4887	252.6944	64.4786	671.8027	-0.0592	0.0182	-0.0073	-0.0462	0.0165	0.9585
26.798	21.2318	179.9634	9.9066	-56.9533	-0.69698	163.2452	-44.0764	617.3704	-38.329	265.5542	64.2571	702.3955	-0.0592	0.0182	-0.0073	-0.0462	0.0165	0.9585
26.81	12.7561	136.5995	7.0764	-43.0155	-1.2464	124.4069	-41.4561	648.6326	-39.1594	278.7816	63.9517	734.0408	-0.0592	0.0182	-0.0073	-0.0462	0.0165	0.9585
26.822	5.4428	100.9131	4.9228	-31.5819	-1.9705	92.3653	-38.9644	679.277	-40.4392	291.6137	64.2056	764.9344	-0.0592	0.0182	-0.0073	-0.0462	0.0165	0.9585
26.834	-0.3091	72.2759	3.327	-22.4549	-2.6274	66.5527	-36.8506	707.4665	-42.3656	303.2488	65.3282	793.0931	-0.0592	0.0182	-0.0073	-0.0462	0.0165	0.9585
26.846	-4.3678	49.7281	2.1622	-15.3195	-3.064	46.1427	-35.1993	731.6927	-44.8498	313.0561	67.2356	816.8709	-0.0592	0.0182	-0.0073	-0.0462	0.0165	0.9585
26.858	-6.7522	32.3156	1.3233	-9.8562	-3.2039	30.3174	-33.978	751.0538	-47.5035	320.6841	69.4789	835.2946	-0.0592	0.0182	-0.0073	-0.0462	0.0165	0.9585
26.87	-7.5519	19.2151	0.73246	-5.7845	-3.0215	18.3731	-33.0985	765.137	-49.926	325.9985	71.5721	847.9311	-0.0592	0.0182	-0.0073	-0.0462	0.0165	0.9585
26.882	-6.9954	9.7712	0.3141	-2.8808	-2.5392	9.7305	-32.4695	773.8698	-51.8447	329.0005	73.1741	854.7395	-0.0592	0.0182	-0.0073	-0.0462	0.0165	0.9585
26.894	-5.6753	3.5102	0.043085	-0.97919	-1.9285	3.9633	-32.019	777.3675	-53.2283	329.7582	74.2172	855.903	-0.0592	0.0182	-0.0073	-0.0462	0.0165	0.9585
26.906	-4.1334	-0.16467	-0.10064	0.11625	-1.3481	0.56164	-31.7341	776.0359	-54.1248	328.4546	74.7514	851.9101	-0.0592	0.0182	-0.0073	-0.0462	0.0165	0.9585
26.918	-2.6866	-1.9408	-0.14363	0.62401	-0.87872	-1.0913	-31.5878	770.7571	-54.6278	325.475	74.8757	843.7372	-0.0592	0.0182	-0.0073	-0.0462	0.0165	0.9585
